HIERARCHY
ROOT root
{
	OFFSET 0.000000 0.000000 0.000000
	CHANNELS 6 Xposition Yposition Zposition Zrotation Yrotation Xrotation
	JOINT lhip
	{
		OFFSET 0.058581 -0.082280 -0.017664
		CHANNELS 3 Zrotation Yrotation Xrotation
		JOINT lknee
		{
			OFFSET 0.043451 -0.386469 0.008037
			CHANNELS 3 Zrotation Yrotation Xrotation
			JOINT lankle
			{
				OFFSET -0.014790 -0.426874 -0.037428
				CHANNELS 3 Zrotation Yrotation Xrotation
				JOINT ltoe
				{
					OFFSET 0.041054 -0.060286 0.122042
					CHANNELS 3 Zrotation Yrotation Xrotation
					End Site
					{
						OFFSET 0.000000 0.000000 0.000000
					}
				}
			}
		}
	}
	JOINT rhip
	{
		OFFSET -0.060310 -0.090513 -0.013543
		CHANNELS 3 Zrotation Yrotation Xrotation
		JOINT rknee
		{
			OFFSET -0.043257 -0.383688 -0.004843
			CHANNELS 3 Zrotation Yrotation Xrotation
			JOINT rankle
			{
				OFFSET 0.019056 -0.420046 -0.034562
				CHANNELS 3 Zrotation Yrotation Xrotation
				JOINT rtoe
				{
					OFFSET -0.034840 -0.062106 0.130323
					CHANNELS 3 Zrotation Yrotation Xrotation
					End Site
					{
						OFFSET 0.000000 0.000000 0.000000
					}
				}
			}
		}
	}
	JOINT lowerback
	{
		OFFSET 0.004439 0.124404 -0.038385
		CHANNELS 3 Zrotation Yrotation Xrotation
		JOINT upperback
		{
			OFFSET 0.004488 0.137956 0.026820
			CHANNELS 3 Zrotation Yrotation Xrotation
			JOINT chest
			{
				OFFSET -0.002265 0.056032 0.002855
				CHANNELS 3 Zrotation Yrotation Xrotation
				JOINT lowerneck
				{
					OFFSET -0.013390 0.211636 -0.033468
					CHANNELS 3 Zrotation Yrotation Xrotation
					JOINT upperneck
					{
						OFFSET 0.010113 0.088937 0.050410
						CHANNELS 3 Zrotation Yrotation Xrotation
						End Site
						{
							OFFSET 0.000000 0.000000 0.000000
						}
					}
				}
				JOINT lclavicle
				{
					OFFSET 0.071702 0.114000 -0.018898
					CHANNELS 3 Zrotation Yrotation Xrotation
					JOINT lshoulder
					{
						OFFSET 0.122921 0.045205 -0.019046
						CHANNELS 3 Zrotation Yrotation Xrotation
						JOINT lelbow
						{
							OFFSET 0.255332 -0.015649 -0.022946
							CHANNELS 3 Zrotation Yrotation Xrotation
							JOINT lwrist
							{
								OFFSET 0.265709 0.012698 -0.007375
								CHANNELS 3 Zrotation Yrotation Xrotation
								End Site
								{
									OFFSET 0.000000 0.000000 0.000000
								}
							}
						}
					}
				}
				JOINT rclavicle
				{
					OFFSET -0.082954 0.112472 -0.023707
					CHANNELS 3 Zrotation Yrotation Xrotation
					JOINT rshoulder
					{
						OFFSET -0.113228 0.046853 -0.008472
						CHANNELS 3 Zrotation Yrotation Xrotation
						JOINT relbow
						{
							OFFSET -0.260127 -0.014369 -0.031269
							CHANNELS 3 Zrotation Yrotation Xrotation
							JOINT rwrist
							{
								OFFSET -0.269108 0.006794 -0.006027
								CHANNELS 3 Zrotation Yrotation Xrotation
								End Site
								{
									OFFSET 0.000000 0.000000 0.000000
								}
							}
						}
					}
				}
			}
		}
	}
}
MOTION
Frames: 17
Frame Time: 0.033333
0.031542 0.322247 1.014578 173.288521 0.211781 90.125750 5.447830 3.769332 3.981497 -3.497914 0.258799 -4.004896 2.801914 10.803828 -11.281538 0.000000 -0.000000 0.000000 -3.775640 -1.143175 -2.397902 2.402494 2.075705 3.555153 8.439971 0.476319 1.793837 0.000000 -0.000000 0.000000 -3.784903 1.294715 0.769426 2.066974 -2.169407 7.819866 1.034827 -0.006410 -5.345924 -0.991934 -5.607867 -1.673543 1.530580 -8.677622 -5.384102 -20.520658 -1.866684 2.283391 -63.095006 -4.427045 16.742537 5.674843 -40.213243 8.668215 -7.876954 -13.537869 3.773255 22.245209 11.718400 4.186998 60.617629 8.788705 18.576761 -2.984429 25.848845 8.644074 8.265404 10.313404 2.503849 
0.031415 0.322603 1.014336 173.985879 0.128580 90.247558 5.279762 3.773206 3.820588 -3.345794 -0.085299 -4.084419 2.700900 10.625777 -11.113277 0.000000 -0.000000 0.000000 -3.879423 -1.501037 -2.256254 2.367114 1.853683 3.259902 8.668221 0.295886 1.903433 0.000000 -0.000000 0.000000 -3.771538 1.243756 0.427850 2.029606 -2.387848 8.065004 1.184250 0.045287 -5.234911 -1.582834 -3.307626 -2.045470 1.297093 -6.317378 -6.073752 -20.451564 -2.377936 2.344378 -63.075431 -4.293145 16.741654 4.846229 -41.316787 9.162502 -7.177568 -13.771116 2.616119 22.444985 11.554053 4.240919 59.699344 9.091804 17.755626 -3.551848 26.503667 6.940970 7.595819 10.285868 1.238141 
0.031409 0.322913 1.014359 174.659693 0.087209 90.214722 5.242500 3.671109 3.893842 -3.301887 -0.419393 -4.481122 2.562545 10.606913 -10.880905 0.000000 -0.000000 0.000000 -3.897900 -1.491894 -2.027464 2.336447 1.564363 3.162748 8.687702 -0.047932 1.759205 0.000000 -0.000000 0.000000 -3.719499 1.208244 0.541157 2.036852 -2.445305 7.910497 1.378412 0.082408 -5.223286 -2.019101 -1.037748 -2.623507 1.033417 -4.468426 -5.830665 -20.454102 -3.017991 2.295840 -62.940591 -4.203742 16.887597 3.983404 -41.106392 9.836513 -7.269572 -14.049821 2.026894 22.536729 11.498373 4.459170 59.059832 9.168799 17.119404 -4.319771 26.924536 5.201817 7.312663 10.554988 -0.296247 
0.031092 0.323339 1.014605 175.758124 -0.193178 90.277626 4.913294 3.450422 3.571218 -3.188152 -0.976447 -4.307476 2.485261 10.429375 -10.657672 0.000000 -0.000000 0.000000 -4.145163 -1.682395 -1.946296 2.269948 1.164808 3.257416 8.645356 -0.536049 1.536009 0.000000 -0.000000 0.000000 -3.579729 1.506724 0.251986 1.956479 -2.506536 8.132673 1.332413 -0.102376 -5.390665 -2.546350 0.852235 -2.777206 1.044754 -2.790604 -5.819219 -20.373292 -3.922750 2.186599 -62.732039 -4.725690 17.342896 2.902561 -39.103222 10.793834 -7.711721 -14.079975 2.477727 22.586232 11.227992 4.285777 58.659862 8.950661 16.502188 -5.054564 27.243813 3.515335 6.754374 11.175799 -1.229938 
0.030987 0.323632 1.014663 176.364068 -0.304367 90.257092 4.806274 3.395105 3.519899 -3.194290 -1.287496 -4.338016 2.478374 10.318402 -10.542251 0.000000 -0.000000 0.000000 -4.218382 -1.762386 -2.009550 2.236997 1.131107 3.614950 8.664490 -0.923190 1.250440 0.000000 -0.000000 0.000000 -3.502284 1.604450 0.174194 1.993120 -2.538104 8.240962 1.325441 -0.052366 -5.499741 -2.771219 1.627161 -2.763942 0.930268 -1.965738 -5.906163 -20.419278 -4.317765 1.910534 -62.738107 -4.895812 17.661001 2.741404 -37.534330 11.224654 -8.208050 -13.780076 3.008291 22.443643 11.119777 4.298702 58.433221 8.716175 16.361133 -5.115606 27.579135 2.859025 6.351259 11.206670 -1.688486 
0.030918 0.324396 1.014676 177.302026 -0.458703 90.133771 4.676640 3.179179 3.385102 -3.191419 -1.721307 -4.062472 2.472603 10.195885 -10.582116 0.000000 -0.000000 0.000000 -4.330265 -1.853900 -1.772530 2.185289 0.888924 3.768172 8.479117 -1.378262 0.984978 0.000000 -0.000000 0.000000 -3.343603 1.667657 0.139949 1.933283 -2.665158 8.323853 1.303357 -0.041442 -5.544719 -2.986817 2.364904 -2.773123 0.961127 -1.218036 -5.879404 -20.604742 -4.874585 1.786080 -62.676236 -5.194104 17.687054 3.003769 -35.210435 11.136946 -8.702872 -13.567795 3.734400 22.352700 11.183774 4.394683 58.226699 8.297526 16.244536 -5.159678 27.812459 2.569644 6.422949 11.601169 -1.900891 
0.030852 0.324975 1.014755 178.238025 -0.596732 89.968442 4.583368 2.963704 3.152819 -3.237426 -2.213887 -3.546383 2.438816 10.052773 -10.698859 0.000000 -0.000000 0.000000 -4.484265 -2.032616 -1.562406 2.253418 0.745724 4.031822 8.366665 -1.784184 0.664288 0.000000 -0.000000 0.000000 -3.078971 1.786496 0.119110 1.871045 -2.721217 8.346659 1.200329 -0.117911 -5.412099 -3.115920 2.843783 -2.851700 0.998354 -0.838030 -6.013347 -20.865442 -5.194061 1.539975 -62.516316 -5.710430 17.710176 3.089182 -32.398768 11.117371 -9.058121 -13.232212 4.428125 22.242333 11.071819 4.345109 58.240140 8.062304 16.239959 -5.078958 27.723092 2.657993 6.366319 11.722609 -1.555643 
0.030956 0.325717 1.014982 179.061376 -0.723752 89.815210 4.446526 2.833470 3.055791 -3.202098 -2.655923 -3.262857 2.462732 9.931088 -10.762725 0.000000 -0.000000 0.000000 -4.588824 -2.175981 -1.320370 2.281825 0.568921 4.180728 8.178782 -2.080940 0.338636 0.000000 -0.000000 0.000000 -2.843515 1.881322 0.237711 1.747511 -2.770868 8.229292 1.120171 -0.148726 -5.416421 -3.118154 2.948289 -2.741523 1.173715 -0.374576 -6.164434 -21.074510 -5.544341 1.427116 -62.503241 -5.711873 17.562159 3.913992 -29.951860 10.261342 -9.294321 -12.844503 4.877903 22.152439 11.137092 4.440784 58.478666 7.534179 16.395881 -4.928267 27.463772 2.962018 7.116526 11.661211 -1.371211 
0.031334 0.326512 1.015106 179.823432 -0.830899 89.639600 4.348568 2.626918 3.008058 -3.167034 -3.092115 -2.954683 2.485716 9.920033 -10.872303 0.000000 -0.000000 0.000000 -4.603008 -2.260685 -1.132219 2.220077 0.358784 4.493700 8.006567 -2.478702 0.008917 0.000000 -0.000000 0.000000 -2.808046 1.871892 0.282118 1.719399 -2.902802 8.291289 1.134744 -0.075281 -5.396011 -2.990754 3.001799 -2.651965 1.345094 -0.189467 -6.437077 -21.256827 -5.375793 1.333896 -62.323510 -5.762552 17.288707 4.315601 -28.174610 9.987423 -10.055743 -12.571084 5.487172 22.159335 11.224352 4.409286 58.579051 7.041517 16.573878 -4.499954 27.189293 3.508489 7.563613 11.758493 -0.919629 
0.032251 0.327610 1.015288 -179.486005 -0.932359 89.531342 4.351851 2.523829 2.933654 -3.266939 -3.378336 -2.657982 2.463643 9.811156 -10.927346 0.000000 -0.000000 0.000000 -4.591131 -2.462913 -0.987282 2.179358 0.170245 4.756518 7.841588 -2.740051 -0.284561 0.000000 -0.000000 0.000000 -2.805499 1.993811 0.316405 1.734977 -2.933050 8.343355 1.187804 -0.135674 -5.426839 -2.701892 2.831131 -2.605062 1.488742 -0.167364 -6.891627 -21.437656 -5.272333 1.418819 -61.849075 -5.304405 16.845822 4.517686 -26.962553 9.431580 -10.326069 -12.280341 5.586623 22.189759 11.200923 4.415741 58.844269 6.389324 16.828755 -4.124327 27.158349 4.491448 7.553038 11.547673 -0.137161 
0.032810 0.328392 1.015318 -178.890855 -0.986723 89.551080 4.339690 2.274341 2.753243 -3.273077 -3.611973 -2.441226 2.424855 9.790801 -10.969666 0.000000 -0.000000 0.000000 -4.602101 -2.554102 -0.867865 2.194311 0.094199 4.773424 7.737530 -3.043381 -0.452144 0.000000 -0.000000 0.000000 -2.793533 2.065299 0.342762 1.759881 -2.983306 8.111231 1.312465 -0.236461 -5.321462 -2.595279 2.558796 -2.700955 1.707973 -0.245470 -7.082499 -21.403345 -5.200789 1.614972 -61.672484 -4.910048 16.665845 4.481189 -26.244594 9.440821 -10.698985 -12.335017 5.351576 22.175915 11.123076 4.486316 59.103037 5.846153 17.048501 -3.650779 26.969269 5.410882 7.883879 11.685094 -0.091838 
0.033581 0.328910 1.015274 -178.407855 -1.003613 89.597380 4.450455 2.066979 2.606409 -3.353875 -3.806961 -2.360208 2.311198 9.629033 -11.022533 0.000000 -0.000000 0.000000 -4.550583 -2.578456 -0.881756 2.208680 -0.002448 4.894229 7.663271 -3.251835 -0.687350 0.000000 -0.000000 0.000000 -2.875943 2.104354 0.309698 1.884908 -3.026954 8.069775 1.454994 -0.240298 -5.226782 -2.410645 2.471848 -3.008959 1.827091 -0.455031 -7.261742 -21.144382 -5.041778 1.561836 -61.658344 -4.380169 16.738348 4.035869 -25.829057 9.849609 -10.283708 -12.206595 5.309372 22.326815 10.879748 4.509098 59.166612 5.560460 17.172777 -3.260533 26.847127 6.141674 7.647829 11.622844 0.424501 
0.034265 0.330168 1.015452 -178.260713 -1.104949 89.525621 4.389323 2.049433 2.754546 -3.317885 -4.005367 -2.367573 2.256817 9.610418 -11.143058 0.000000 -0.000000 0.000000 -4.623712 -2.600555 -0.673937 2.241643 -0.071871 4.868341 7.635988 -3.293268 -0.817933 0.000000 -0.000000 0.000000 -3.016600 2.241779 0.338959 1.996097 -2.957999 8.267424 1.553726 -0.190921 -5.417114 -2.240345 2.386237 -3.123935 2.067474 -0.673738 -7.511234 -21.267712 -4.788233 1.611058 -61.198297 -4.025363 16.742270 3.508565 -25.381670 10.554075 -10.571122 -12.367066 6.120855 22.669693 10.648472 4.555034 59.243721 5.157570 17.093755 -3.096413 26.602539 6.460400 7.562504 11.624670 0.962487 
0.034856 0.330338 1.015425 -177.885638 -1.085931 89.641666 4.491248 1.932575 2.441568 -3.383149 -4.093809 -2.110623 2.166064 9.575906 -11.222548 0.000000 -0.000000 0.000000 -4.554784 -2.732011 -0.660284 2.279267 -0.114929 4.699731 7.605171 -3.521765 -0.781057 0.000000 -0.000000 0.000000 -2.962773 2.326625 0.385187 2.085297 -2.991584 8.162514 1.625676 -0.208984 -5.365749 -2.077898 2.213081 -3.406426 2.160831 -0.902770 -7.761574 -21.091841 -4.738753 1.704090 -61.215351 -3.605594 16.951080 3.267565 -25.486534 11.097509 -10.587263 -12.080506 6.301917 22.765559 10.469350 4.572194 59.554424 4.839586 17.081336 -3.281809 26.481902 6.621070 7.478486 11.452544 1.040044 
0.035355 0.331144 1.015268 -177.806750 -1.235830 89.691122 4.352805 1.963106 2.388378 -3.338248 -4.210904 -2.028285 2.017775 9.627824 -11.393025 0.000000 -0.000000 0.000000 -4.688985 -2.751503 -0.769919 2.274877 -0.161109 4.968427 7.606320 -3.492171 -0.968907 0.000000 -0.000000 0.000000 -3.063509 2.404057 0.305422 2.111710 -2.882437 8.425352 1.690990 -0.157713 -5.419377 -2.006193 2.280750 -3.684427 2.190508 -1.028380 -8.062787 -21.083236 -4.604637 1.716121 -61.171425 -3.373312 16.969276 3.144413 -25.419464 11.379281 -10.722275 -12.072446 6.649413 22.956744 10.310947 4.589560 59.768766 4.673700 16.914038 -3.458619 26.265608 6.466799 7.083955 11.368195 1.218132 
0.035404 0.331429 1.015219 -177.533278 -1.329708 89.760330 4.251197 1.886161 2.199325 -3.299879 -4.292004 -1.831640 1.921025 9.556622 -11.529082 0.000000 -0.000000 0.000000 -4.779377 -2.771929 -0.824803 2.276545 -0.259651 5.071000 7.596675 -3.588786 -1.038274 0.000000 -0.000000 0.000000 -3.018289 2.439571 0.440167 2.125636 -2.906981 8.504346 1.705059 -0.188952 -5.447179 -1.967770 2.306051 -4.070951 2.252821 -1.088003 -8.390228 -21.106590 -4.351435 1.799107 -61.272254 -3.236093 16.831479 3.260393 -25.427321 11.484617 -10.773111 -12.064100 6.708498 23.118497 10.192684 4.595476 59.784349 4.578160 16.698024 -3.587785 26.159589 6.215998 6.649168 11.562885 1.297491 
0.035420 0.331664 1.015314 -177.279029 -1.402851 89.845767 4.176799 1.966771 2.028065 -3.299312 -4.373451 -1.728345 1.882969 9.470284 -11.503272 0.000000 -0.000000 0.000000 -4.854128 -2.822694 -0.826792 2.279128 -0.344118 5.022841 7.653583 -3.634289 -1.045279 0.000000 -0.000000 0.000000 -2.833092 2.328467 0.561617 2.050460 -2.905511 8.447386 1.655371 -0.147470 -5.340017 -2.041149 2.247994 -4.411741 2.208547 -1.126389 -8.613833 -21.204654 -4.110536 1.925724 -61.429730 -3.079880 16.612336 3.701728 -25.821675 11.129840 -10.781224 -12.210178 6.270152 22.954018 10.128926 4.655512 60.024531 4.422062 16.537338 -3.790554 26.623306 5.859255 6.544889 11.336647 0.532532 
